<?xml version="1.0" encoding="UTF-8"?>
<svg id="Layer_1" data-name="Layer 1" xmlns="http://www.w3.org/2000/svg" width="620" height="620" xmlns:xlink="http://www.w3.org/1999/xlink" viewBox="0 0 620 620">
  <defs>
    <radialGradient id="radial-gradient" cx="310" cy="310" fx="310" fy="310" r="310" gradientUnits="userSpaceOnUse">
      <stop offset="0" stop-color="#6091ff"/>
      <stop offset=".14" stop-color="#1b55b9"/>
      <stop offset=".24" stop-color="#376bc8"/>
      <stop offset=".4" stop-color="#608ce0"/>
      <stop offset=".55" stop-color="#7fa4f1"/>
      <stop offset=".68" stop-color="#91b2fb"/>
      <stop offset=".77" stop-color="#98b8ff"/>
      <stop offset=".88" stop-color="#4777d1"/>
      <stop offset=".96" stop-color="#134eb5"/>
      <stop offset="1" stop-color="#003faa"/>
    </radialGradient>
    <radialGradient id="radial-gradient-2" cx="310" cy="310" fx="166.32" fy="460.19" r="300" gradientUnits="userSpaceOnUse">
      <stop offset="0" stop-color="#6091ff"/>
      <stop offset=".14" stop-color="#1b55b9"/>
      <stop offset=".16" stop-color="#376bc8"/>
      <stop offset=".19" stop-color="#608ce0"/>
      <stop offset=".21" stop-color="#7fa4f1"/>
      <stop offset=".24" stop-color="#91b2fb"/>
      <stop offset=".25" stop-color="#98b8ff"/>
      <stop offset=".54" stop-color="#4777d1"/>
      <stop offset=".75" stop-color="#134eb5"/>
      <stop offset=".85" stop-color="#003faa"/>
      <stop offset=".89" stop-color="#0342ad"/>
      <stop offset=".92" stop-color="#0e4bb8"/>
      <stop offset=".95" stop-color="#205bca"/>
      <stop offset=".98" stop-color="#3a72e4"/>
      <stop offset="1" stop-color="#558aff"/>
    </radialGradient>
    <radialGradient id="radial-gradient-3" cx="310" cy="310" fx="310" fy="310" r="260" gradientUnits="userSpaceOnUse">
      <stop offset="0" stop-color="#6091ff"/>
      <stop offset=".83" stop-color="#1b55b9"/>
      <stop offset=".86" stop-color="#376bc8"/>
      <stop offset=".9" stop-color="#608ce0"/>
      <stop offset=".94" stop-color="#7fa4f1"/>
      <stop offset=".98" stop-color="#91b2fb"/>
      <stop offset="1" stop-color="#98b8ff"/>
    </radialGradient>
  </defs>
  <circle cx="310" cy="310" r="310" fill="url(#radial-gradient)"/>
  <circle cx="310" cy="310" r="300" fill="url(#radial-gradient-2)"/>
  <circle cx="310" cy="310" r="260" fill="url(#radial-gradient-3)"/>
  <circle cx="310" cy="310" r="255" fill="#fff"/>
  <g>
    <path d="M147.2,235.24l1.11-47.29c.2-6.9-1.72-7.54-9.41-8v-1.38h17.3c1.01,2.76,2.23,5.89,3.64,9.38l19.73,48.57,18.92-46.83c1.72-4.05,3.54-8.92,3.85-11.13h16.7v1.38c-7.08.37-8.6.92-8.5,4.42l1.21,55.38c.1,3.5,1.32,4.05,8.5,4.42v1.38h-22.97v-1.38c7.08-.37,8.6-.92,8.5-4.42l-1.32-56.67-25.4,62.46h-2.02l-25.5-62.37-1.21,52.07c-.2,6.9.71,8.46,10.22,8.92v1.38h-22.87v-1.38c7.69-.46,9.41-2.02,9.51-8.92Z" fill="#00347f" stroke="#00347f" stroke-miterlimit="10"/>
    <path d="M236.45,240.03v-28.61c0-5.52-1.82-6.72-6.48-7.18v-1.38c4.35-.37,8-1.2,10.93-2.39h1.62c-.61,3.68-.61,7.08-.61,10.95v28.61c0,3.4,1.42,3.77,7.29,4.14v1.38h-20.04v-1.38c5.87-.37,7.29-.74,7.29-4.14ZM238.28,179.86c2.23,0,4.05,1.66,4.05,3.68s-1.82,3.68-4.05,3.68-4.15-1.56-4.15-3.68,1.82-3.68,4.15-3.68Z" fill="#00347f" stroke="#00347f" stroke-miterlimit="10"/>
    <path d="M294.54,240.03v-23.73c0-8.19-4.15-11.87-10.93-11.87-4.76,0-9.51,2.48-14.17,5.7v29.9c0,3.4,1.42,3.77,6.48,4.14v1.38h-18.82v-1.38c5.46-.37,6.88-.74,6.88-4.14v-28.61c0-5.52-1.82-6.72-6.07-7.18v-1.38c3.64-.37,7.59-1.2,10.52-2.39h1.62l-.71,7.27c4.86-3.77,10.42-6.9,17.61-6.9,8.1,0,13.05,4.78,13.05,14.35v24.84c0,3.4,1.42,3.77,6.88,4.14v1.38h-18.82v-1.38c5.06-.37,6.48-.74,6.48-4.14Z" fill="#00347f" stroke="#00347f" stroke-miterlimit="10"/>
    <path d="M316.2,224.3c0-14.54,10.83-23.46,24.08-23.46,4.96,0,9.51,1.1,13.56,3.31v-15.46c0-7.64-.81-8.92-6.07-9.38v-1.38c3.95-.37,7.59-1.29,10.73-3.22h1.42c-.61,3.68-.61,6.62-.61,13.98v48.67c0,5.15.91,5.98,6.38,5.98v1.1c-4.35.28-7.99,1.1-11.33,2.02h-1.11l.71-5.98c-4.25,3.22-10.02,5.61-16.7,5.61-11.54,0-21.05-8.37-21.05-21.8ZM340.28,242.42c4.25,0,8.8-1.38,13.56-4.69v-24.19c0-5.7-5.57-10.21-14.07-10.21-9.61,0-17.91,6.99-17.91,18.86s6.98,20.24,18.42,20.24Z" fill="#00347f" stroke="#00347f" stroke-miterlimit="10"/>
    <path d="M380.66,240.03v-35.42h-6.07v-1.56l6.07-1.66v-2.12c0-14.63,7.79-24.38,19.73-24.38,5.46,0,9.11,1.93,9.11,4.42,0,1.47-1.32,2.48-2.93,2.48-1.21,0-2.12-.74-3.04-1.56-1.32-1.01-2.83-2.02-6.07-2.02-6.78,0-11.33,5.24-11.33,18.67v4.51h12.95l-.61,3.22h-12.35v35.42c0,3.4,1.42,3.77,8.91,4.14v1.38h-21.25v-1.38c5.46-.37,6.88-.74,6.88-4.14Z" fill="#00347f" stroke="#00347f" stroke-miterlimit="10"/>
    <path d="M411.93,231.75v-23.27c0-4.05-1.62-5.34-6.48-5.7v-1.38c3.34,0,7.18-.37,10.93-.92h1.52c-.61,3.5-.61,7.08-.61,10.95v19.23c0,8.19,4.25,11.87,11.03,11.87,4.66,0,9.51-2.76,14.17-6.53v-27.51c0-4.05-1.62-5.34-7.69-5.7v-1.38c4.55,0,8.4-.37,12.14-.92h1.52c-.61,3.5-.61,7.08-.61,10.95v25.94c0,5.15,1.01,5.98,6.48,5.98v1.38c-4.25.18-7.69.83-10.93,1.75h-1.52l.71-8c-4.86,4.14-10.42,7.64-17.71,7.64-8.1,0-12.95-4.78-12.95-14.35Z" fill="#00347f" stroke="#00347f" stroke-miterlimit="10"/>
    <path d="M469.52,240.03v-51.33c0-7.64-.91-8.92-6.58-9.38v-1.38c4.25-.37,7.79-1.29,10.93-3.22h1.62c-.61,3.68-.61,6.62-.61,13.98v51.33c0,3.4,1.42,3.77,7.29,4.14v1.38h-20.04v-1.38c5.97-.37,7.39-.74,7.39-4.14Z" fill="#00347f" stroke="#00347f" stroke-miterlimit="10"/>
    <path d="M146.33,331.75v-55.38c0-3.5-1.42-4.05-8.5-4.42v-1.38h22.06c15.89,0,25.2,5.34,25.2,15.36s-9.41,14.08-15.69,15.36v.18c9.61,1.1,20.34,5.61,20.34,17.02,0,12.24-12.35,19.04-28.64,19.04h-23.28v-1.38c7.08-.37,8.5-.92,8.5-4.42ZM158.99,300.47c13.05,0,20.24-5.06,20.24-13.52,0-9.2-7.69-13.8-19.83-13.8h-7.08v27.32h6.68ZM160.6,334.97c14.37,0,22.87-6.07,22.87-15.73,0-10.76-10.02-16.19-23.38-16.19h-7.79v27.97c0,3.04.91,3.96,8.3,3.96Z" fill="#00347f" stroke="#00347f" stroke-miterlimit="10"/>
    <path d="M227.9,331.57c-5.16,4.88-10.02,6.72-15.99,6.72s-10.42-3.68-10.42-9.02c0-4.23,2.33-8.37,13.36-11.32l13.05-3.5v-8.74c0-6.44-3.14-9.66-8.1-9.66-2.23,0-6.27.74-8.7,2.39-2.43,1.47-3.04,3.5-3.04,6.35,0,1.75-1.32,2.67-2.83,2.67s-2.73-.92-2.73-2.76c0-2.02,1.52-4.32,3.95-6.35,3.64-2.94,9.21-5.52,15.79-5.52s11.13,3.68,11.13,11.87v25.76c0,2.58,1.01,4.42,3.34,4.42,2.02,0,3.64-1.47,5.16-3.77l1.32.74c-1.72,3.04-4.66,6.44-9.41,6.44-4.35,0-5.67-3.13-5.87-6.72ZM214.75,334.97c4.65,0,8.91-2.21,13.16-5.98v-12.14l-11.74,3.31c-6.68,1.84-9.31,4.05-9.31,7.82,0,4.32,3.24,6.99,7.89,6.99Z" fill="#00347f" stroke="#00347f" stroke-miterlimit="10"/>
    <path d="M256.14,332.03v-51.33c0-7.64-.91-8.92-6.58-9.38v-1.38c4.25-.37,7.79-1.29,10.93-3.22h1.62c-.61,3.68-.61,6.62-.61,13.98v51.33c0,3.4,1.42,3.77,7.29,4.14v1.38h-20.04v-1.38c5.97-.37,7.39-.74,7.39-4.14Z" fill="#00347f" stroke="#00347f" stroke-miterlimit="10"/>
    <path d="M304.71,331.57c-5.16,4.88-10.02,6.72-15.99,6.72s-10.42-3.68-10.42-9.02c0-4.23,2.33-8.37,13.36-11.32l13.05-3.5v-8.74c0-6.44-3.14-9.66-8.1-9.66-2.23,0-6.27.74-8.7,2.39-2.43,1.47-3.04,3.5-3.04,6.35,0,1.75-1.32,2.67-2.83,2.67s-2.73-.92-2.73-2.76c0-2.02,1.52-4.32,3.95-6.35,3.64-2.94,9.21-5.52,15.79-5.52s11.13,3.68,11.13,11.87v25.76c0,2.58,1.01,4.42,3.34,4.42,2.02,0,3.64-1.47,5.16-3.77l1.32.74c-1.72,3.04-4.65,6.44-9.41,6.44-4.35,0-5.67-3.13-5.87-6.72ZM291.56,334.97c4.65,0,8.91-2.21,13.16-5.98v-12.14l-11.74,3.31c-6.68,1.84-9.31,4.05-9.31,7.82,0,4.32,3.24,6.99,7.89,6.99Z" fill="#00347f" stroke="#00347f" stroke-miterlimit="10"/>
    <path d="M363.71,332.03v-23.73c0-8.19-4.15-11.87-10.93-11.87-4.76,0-9.51,2.48-14.17,5.7v29.9c0,3.4,1.42,3.77,6.48,4.14v1.38h-18.82v-1.38c5.46-.37,6.88-.74,6.88-4.14v-28.61c0-5.52-1.82-6.72-6.07-7.18v-1.38c3.64-.37,7.59-1.2,10.52-2.39h1.62l-.71,7.27c4.86-3.77,10.42-6.9,17.61-6.9,8.1,0,13.05,4.78,13.05,14.35v24.84c0,3.4,1.42,3.77,6.88,4.14v1.38h-18.82v-1.38c5.06-.37,6.48-.74,6.48-4.14Z" fill="#00347f" stroke="#00347f" stroke-miterlimit="10"/>
    <path d="M385.37,315.93c0-13.98,10.42-23.46,24.39-23.46,10.52,0,17.71,6.07,17.71,9.48,0,1.56-1.21,2.58-2.83,2.58-1.52,0-2.33-.92-3.34-2.76-2.53-4.42-6.48-6.99-12.35-6.99-10.22,0-18.11,6.99-18.11,18.68,0,13.16,8.7,21.16,19.33,21.16,7.59,0,14.27-4.51,18.52-11.78l1.62.74c-4.55,10.21-13.56,14.9-22.36,14.9-12.45,0-22.57-8.83-22.57-22.54Z" fill="#00347f" stroke="#00347f" stroke-miterlimit="10"/>
    <path d="M439.21,315.56c0-13.43,9.61-23.09,22.87-23.09,11.23,0,18.42,6.35,18.21,17.48h-35.52c-.1,1.2-.2,2.39-.2,3.68,0,13.06,8.5,20.97,18.62,20.97,7.18,0,13.36-4.42,17.51-11.68l1.62.74c-4.35,9.94-12.65,14.81-21.25,14.81-12.14,0-21.86-8.56-21.86-22.91ZM472.2,307.65c1.62,0,2.12-.46,2.12-2.12,0-5.24-4.15-10.76-12.85-10.76-7.99,0-14.27,4.6-16.19,12.88h26.92Z" fill="#00347f" stroke="#00347f" stroke-miterlimit="10"/>
  </g>
  <g>
    <path d="M166.1,409.79h-3.81l-2.64-7.5h-11.63l-2.64,7.5h-3.63l9.79-26.9h4.77l9.79,26.9ZM158.55,399.23l-4.72-13.21-4.73,13.21h9.45Z" fill="#00347f"/>
    <path d="M193.8,396.37c0,2.45-.53,4.66-1.6,6.65-1.07,1.99-2.48,3.53-4.25,4.62-1.23.76-2.6,1.31-4.11,1.64-1.51.34-3.5.51-5.97.51h-6.79v-26.9h6.72c2.63,0,4.71.19,6.26.57,1.55.38,2.86.9,3.93,1.56,1.83,1.14,3.26,2.67,4.28,4.57,1.02,1.9,1.54,4.16,1.54,6.77ZM190.06,396.32c0-2.11-.37-3.88-1.1-5.33s-1.83-2.58-3.29-3.42c-1.06-.6-2.19-1.02-3.38-1.26-1.19-.23-2.62-.35-4.28-.35h-3.36v20.76h3.36c1.72,0,3.22-.13,4.51-.38,1.28-.25,2.46-.72,3.53-1.41,1.34-.86,2.34-1.98,3.01-3.38.67-1.4,1-3.14,1-5.24Z" fill="#00347f"/>
    <path d="M221.05,409.79h-3.58v-13.17h-13.42v13.17h-3.58v-26.9h3.58v10.55h13.42v-10.55h3.58v26.9Z" fill="#00347f"/>
    <path d="M251.89,396.37c0,2.45-.53,4.66-1.6,6.65-1.07,1.99-2.48,3.53-4.25,4.62-1.23.76-2.6,1.31-4.11,1.64-1.51.34-3.5.51-5.97.51h-6.79v-26.9h6.72c2.63,0,4.71.19,6.26.57,1.55.38,2.86.9,3.93,1.56,1.83,1.14,3.26,2.67,4.28,4.57,1.02,1.9,1.54,4.16,1.54,6.77ZM248.15,396.32c0-2.11-.37-3.88-1.1-5.33s-1.83-2.58-3.29-3.42c-1.06-.6-2.19-1.02-3.38-1.26-1.19-.23-2.62-.35-4.28-.35h-3.36v20.76h3.36c1.72,0,3.22-.13,4.51-.38,1.28-.25,2.46-.72,3.53-1.41,1.34-.86,2.34-1.98,3.01-3.38.67-1.4,1-3.14,1-5.24Z" fill="#00347f"/>
    <path d="M293.23,407.84c-.66.29-1.26.56-1.8.81-.54.25-1.24.52-2.1.79-.74.23-1.53.42-2.39.59-.86.16-1.81.24-2.85.24-1.95,0-3.72-.27-5.32-.82-1.6-.55-2.98-1.41-4.17-2.57-1.16-1.14-2.06-2.6-2.71-4.36s-.98-3.82-.98-6.15c0-2.22.31-4.2.94-5.94s1.53-3.22,2.71-4.43c1.14-1.17,2.53-2.06,4.15-2.67,1.62-.62,3.42-.92,5.39-.92,1.45,0,2.89.17,4.33.52,1.44.35,3.04.96,4.8,1.84v4.25h-.27c-1.48-1.24-2.95-2.14-4.41-2.71s-3.02-.85-4.68-.85c-1.36,0-2.59.22-3.68.66s-2.06,1.12-2.92,2.05c-.83.9-1.48,2.04-1.94,3.42-.46,1.38-.7,2.97-.7,4.78s.26,3.52.77,4.88c.51,1.36,1.17,2.47,1.98,3.32.84.89,1.83,1.55,2.95,1.98,1.13.43,2.32.64,3.57.64,1.72,0,3.34-.29,4.84-.88,1.5-.59,2.91-1.48,4.23-2.66h.25v4.19Z" fill="#00347f"/>
    <path d="M319.23,385.98c1.1,1.2,1.94,2.68,2.52,4.43.58,1.75.88,3.73.88,5.94s-.3,4.2-.89,5.95c-.6,1.75-1.43,3.21-2.5,4.38-1.11,1.22-2.42,2.13-3.93,2.75-1.51.61-3.24.92-5.18.92s-3.61-.31-5.16-.94c-1.55-.63-2.86-1.54-3.95-2.73s-1.92-2.66-2.5-4.39-.88-3.71-.88-5.94.29-4.16.87-5.9,1.42-3.23,2.53-4.47c1.06-1.18,2.38-2.08,3.95-2.71,1.57-.63,3.29-.94,5.14-.94s3.66.32,5.19.95c1.54.63,2.84,1.53,3.91,2.7ZM318.91,396.35c0-3.49-.78-6.19-2.35-8.08-1.57-1.9-3.7-2.84-6.41-2.84s-4.88.95-6.44,2.84c-1.56,1.9-2.34,4.59-2.34,8.08s.79,6.23,2.38,8.1c1.59,1.87,3.72,2.81,6.4,2.81s4.8-.94,6.39-2.81c1.58-1.87,2.38-4.57,2.38-8.1Z" fill="#00347f"/>
    <path d="M350.4,409.79h-3.81l-2.64-7.5h-11.63l-2.64,7.5h-3.63l9.79-26.9h4.77l9.79,26.9ZM342.85,399.23l-4.71-13.21-4.73,13.21h9.45Z" fill="#00347f"/>
    <path d="M376.15,407.84c-.66.29-1.26.56-1.8.81-.54.25-1.24.52-2.1.79-.74.23-1.53.42-2.39.59-.86.16-1.81.24-2.85.24-1.95,0-3.72-.27-5.32-.82-1.6-.55-2.98-1.41-4.17-2.57-1.16-1.14-2.06-2.6-2.71-4.36s-.98-3.82-.98-6.15c0-2.22.31-4.2.94-5.94s1.53-3.22,2.71-4.43c1.14-1.17,2.53-2.06,4.15-2.67,1.62-.62,3.42-.92,5.39-.92,1.45,0,2.89.17,4.33.52,1.44.35,3.04.96,4.8,1.84v4.25h-.27c-1.48-1.24-2.95-2.14-4.41-2.71s-3.02-.85-4.68-.85c-1.36,0-2.59.22-3.68.66s-2.06,1.12-2.92,2.05c-.83.9-1.48,2.04-1.94,3.42-.46,1.38-.7,2.97-.7,4.78s.26,3.52.77,4.88c.51,1.36,1.17,2.47,1.98,3.32.84.89,1.83,1.55,2.95,1.98,1.13.43,2.32.64,3.57.64,1.72,0,3.34-.29,4.84-.88,1.5-.59,2.91-1.48,4.23-2.66h.25v4.19Z" fill="#00347f"/>
    <path d="M402.67,409.79h-3.58v-13.17h-13.42v13.17h-3.58v-26.9h3.58v10.55h13.42v-10.55h3.58v26.9Z" fill="#00347f"/>
    <path d="M420.27,409.79h-10.62v-2.75h3.52v-21.41h-3.52v-2.75h10.62v2.75h-3.52v21.41h3.52v2.75Z" fill="#00347f"/>
    <path d="M447.77,409.79h-4.43l-12.75-24.06v24.06h-3.34v-26.9h5.55l11.63,21.97v-21.97h3.34v26.9Z" fill="#00347f"/>
    <path d="M478.25,407.81c-1.47.67-3.07,1.26-4.81,1.76-1.74.5-3.42.75-5.05.75-2.1,0-4.02-.29-5.76-.87s-3.23-1.45-4.46-2.6c-1.24-1.17-2.2-2.63-2.87-4.38-.67-1.75-1.01-3.8-1.01-6.15,0-4.3,1.26-7.69,3.77-10.18,2.51-2.49,5.96-3.73,10.34-3.73,1.53,0,3.09.18,4.69.55,1.6.37,3.31.99,5.16,1.87v4.25h-.33c-.37-.29-.92-.67-1.63-1.14s-1.41-.86-2.1-1.17c-.83-.37-1.77-.68-2.83-.93s-2.25-.37-3.59-.37c-3.01,0-5.39.97-7.15,2.9-1.75,1.93-2.63,4.55-2.63,7.85,0,3.48.92,6.19,2.75,8.12,1.83,1.93,4.32,2.9,7.48,2.9,1.16,0,2.31-.11,3.46-.34,1.15-.23,2.16-.52,3.03-.89v-6.59h-7.21v-3.14h10.75v11.54Z" fill="#00347f"/>
  </g>
  <path d="M310,452.85c19.06,0,34.56,15.5,34.56,34.56s-15.5,34.56-34.56,34.56-34.56-15.5-34.56-34.56,15.5-34.56,34.56-34.56M310,450.85c-20.19,0-36.56,16.37-36.56,36.56s16.37,36.56,36.56,36.56,36.56-16.37,36.56-36.56-16.37-36.56-36.56-36.56h0Z" fill="#1b55b9"/>
  <g>
    <path d="M306.38,479.58c-.2.37-.53.72-1,1.04s-1.04.53-1.7.63c-.12-.59-.33-1.2-.61-1.83-.28-.63-.69-1.2-1.22-1.72-.53-.52-1.2-.95-2-1.29s-1.78-.52-2.94-.52c-1.04,0-2.07.2-3.11.61-1.04.41-1.97,1.05-2.81,1.94-.84.89-1.52,2.04-2.05,3.46-.53,1.42-.79,3.14-.79,5.16s.27,3.77.81,5.33c.54,1.55,1.28,2.86,2.22,3.9.94,1.05,2.03,1.84,3.27,2.39,1.25.54,2.58.81,4.01.81,1.65,0,3.05-.28,4.2-.83,1.15-.55,2.11-1.29,2.9-2.2.15.05.32.15.52.3s.32.3.37.44c-.2.35-.52.78-.96,1.29-.44.52-1.04,1.02-1.79,1.5-.75.48-1.69.9-2.81,1.26-1.12.36-2.46.54-4.01.54s-3.01-.28-4.44-.83c-1.43-.55-2.7-1.39-3.81-2.52-1.11-1.12-2-2.53-2.66-4.22s-1-3.66-1-5.9c0-1.97.36-3.83,1.07-5.57.71-1.74,1.68-3.25,2.9-4.53,1.22-1.28,2.64-2.29,4.25-3.03,1.62-.74,3.34-1.11,5.16-1.11,1.48,0,2.73.21,3.75.63,1.02.42,1.85.92,2.48,1.52s1.08,1.2,1.37,1.83c.28.63.42,1.14.42,1.54Z" fill="#1b55b9"/>
    <path d="M312.59,475.51c1.08-.39,2.36-.73,3.83-1.02,1.47-.28,2.95-.42,4.46-.42,1.68,0,3.1.19,4.27.57,1.17.38,2.13.9,2.87,1.55.74.65,1.28,1.41,1.61,2.28.33.86.5,1.78.5,2.74,0,1.18-.22,2.23-.67,3.13s-1.02,1.68-1.72,2.33c-.7.65-1.51,1.2-2.42,1.63-.91.43-1.83.76-2.74.98.42.27.81.61,1.18,1.02.37.41.76.88,1.18,1.42l3.66,4.74c.76.99,1.47,1.84,2.11,2.55.64.72,1.18,1.26,1.63,1.63v.22c-.35.17-.85.3-1.52.39-.67.09-1.29.13-1.89.13-.25-.1-.57-.36-.98-.8-.41-.43-.97-1.17-1.68-2.2l-4.37-6.18c-.32-.44-.62-.83-.91-1.15-.28-.32-.59-.58-.92-.79s-.72-.36-1.15-.44c-.43-.09-.96-.13-1.57-.13h-1.74v11.1c-.4.22-.86.38-1.39.46-.53.09-1.08.13-1.65.13v-25.86ZM319.55,475.77c-.59,0-1.23.04-1.92.11-.69.07-1.36.19-2,.33v11.47c.42.12.91.22,1.46.3.56.07,1.19.11,1.91.11,2.42,0,4.33-.49,5.73-1.48s2.11-2.5,2.11-4.55c0-.89-.15-1.72-.44-2.5s-.75-1.44-1.35-2-1.36-.99-2.28-1.31c-.91-.32-1.99-.48-3.22-.48Z" fill="#1b55b9"/>
  </g>
  <g>
    <circle cx="257.02" cy="488.47" r="6" fill="#1b55b9"/>
    <circle cx="362.98" cy="488.47" r="6" fill="#1b55b9"/>
  </g>
</svg>